<?xml version="1.0" encoding="UTF-8" standalone="no"?>
<!-- Created with Inkscape (http://www.inkscape.org/) -->

<svg
   xmlns:dc="http://purl.org/dc/elements/1.1/"
   xmlns:cc="http://creativecommons.org/ns#"
   xmlns:rdf="http://www.w3.org/1999/02/22-rdf-syntax-ns#"
   xmlns:svg="http://www.w3.org/2000/svg"
   xmlns="http://www.w3.org/2000/svg"
   xmlns:sodipodi="http://sodipodi.sourceforge.net/DTD/sodipodi-0.dtd"
   xmlns:inkscape="http://www.inkscape.org/namespaces/inkscape"
   width="1017.2"
   height="300"
   id="svg2"
   version="1.1"
   inkscape:version="0.48.4 r9939"
   sodipodi:docname="dispersive-white-bg.svg">
  <defs
     id="defs4" />
  <sodipodi:namedview
     id="base"
     pagecolor="#ffffff"
     bordercolor="#666666"
     borderopacity="1.0"
     inkscape:pageopacity="1"
     inkscape:pageshadow="2"
     inkscape:zoom="0.35"
     inkscape:cx="821.12728"
     inkscape:cy="-87.783067"
     inkscape:document-units="px"
     inkscape:current-layer="layer1"
     showgrid="true"
     showguides="true"
     inkscape:guide-bbox="true"
     inkscape:window-width="1317"
     inkscape:window-height="725"
     inkscape:window-x="151"
     inkscape:window-y="94"
     inkscape:window-maximized="0"
     fit-margin-top="0"
     fit-margin-left="0"
     fit-margin-right="0"
     fit-margin-bottom="0">
    <inkscape:grid
       type="xygrid"
       id="grid3790"
       empspacing="5"
       visible="true"
       enabled="true"
       snapvisiblegridlinesonly="true"
       originx="177.19697px"
       originy="-574.41545px" />
  </sodipodi:namedview>
  <metadata
     id="metadata7">
    <rdf:RDF>
      <cc:Work
         rdf:about="">
        <dc:format>image/svg+xml</dc:format>
        <dc:type
           rdf:resource="http://purl.org/dc/dcmitype/StillImage" />
        <dc:title />
      </cc:Work>
    </rdf:RDF>
  </metadata>
  <g
     inkscape:label="Layer 1"
     inkscape:groupmode="layer"
     id="layer1"
     transform="translate(177.19697,-177.94673)">
    <path
       inkscape:connector-curvature="0"
       style="fill:#2ad4ff;fill-opacity:1;stroke:none"
       d="M 840,257.46875 335.65625,368.3125 840,277 l 0,-19.53125 z"
       id="path3772" />
    <path
       inkscape:connector-curvature="0"
       style="fill:#00d400;fill-opacity:1;stroke:none"
       d="M 840,238.4375 335.6875,367.875 840,258.25 l 0,-19.8125 z"
       id="path3770" />
    <path
       inkscape:connector-curvature="0"
       style="fill:#ffff00;fill-opacity:1;stroke:none"
       d="M 840,219.0625 335.71875,367.4375 840,239.25 l 0,-20.1875 z"
       id="path3768" />
    <path
       inkscape:connector-curvature="0"
       style="fill:#ff6600;fill-opacity:1;stroke:none"
       d="M 840,199.3125 335.71875,367 840,219.90625 840,199.3125 z"
       id="path3766" />
    <path
       inkscape:connector-curvature="0"
       style="fill:#d40000;fill-opacity:1;stroke:none"
       d="M 839.5,179.25 335.6875,366.5625 840,200.15625 l 0,-19.375 -0.5,-1.53125 z"
       id="path3764" />
    <path
       style="fill:#666666;fill-opacity:1;stroke:none"
       d="m -177.19697,206.53601 512.91126,160.68331 0,0 L -177,225.36218 z"
       id="rect2989"
       inkscape:connector-curvature="0"
       sodipodi:nodetypes="ccccc" />
    <path
       style="fill:#892ca0;fill-opacity:1;stroke:none"
       d="M 840,276.25 335.625,368.75 840,295.5 l 0,-19.25 z"
       id="path3774"
       inkscape:connector-curvature="0" />
    <g
       transform="matrix(3.8217483,0,0,3.8217483,-316.13654,-428.64697)"
       style="font-size:40px;font-style:normal;font-variant:normal;font-weight:normal;font-stretch:normal;line-height:125%;letter-spacing:0px;word-spacing:0px;fill:#666666;fill-opacity:1;stroke:none;font-family:Virgo;-inkscape-font-specification:Virgo"
       id="flowRoot2998">
      <path
         d="m 65.949219,199.60134 9.375,0 c 8.346332,0.013 12.519505,4.17971 12.519531,12.5 -0.01305,8.29427 -4.075543,12.45443 -12.1875,12.48047 l -9.707031,0 c -2.083336,0.013 -3.125002,-1.02865 -3.125,-3.125 l 0,-18.73047 c -2e-6,-2.07029 1.041664,-3.11196 3.125,-3.125 m 3.144531,6.26953 0,12.44141 6.269531,0 c 4.140607,0.0391 6.197897,-2.05078 6.171875,-6.26954 0.02602,-4.10154 -2.037778,-6.15883 -6.191406,-6.17187 l -6.25,0"
         id="path3931"
         inkscape:connector-curvature="0" />
      <path
         d="m 93.664062,199.62087 c 2.083327,0.013 3.144524,1.04169 3.183594,3.08594 l 0,18.78906 c -0.02605,2.07031 -1.074225,3.125 -3.144531,3.16406 -2.083336,-0.0521 -3.125001,-1.10677 -3.125,-3.16406 l 0,-18.76953 c -0.01302,-2.07029 1.015623,-3.10545 3.085937,-3.10547"
         id="path3933"
         inkscape:connector-curvature="0" />
      <path
         d="m 121.53516,202.70681 c -3e-5,2.08335 -1.00263,3.13153 -3.00782,3.14453 l -9.51171,-0.0195 c -2.10939,0.0261 -3.17059,0.55991 -3.1836,1.60156 0.026,0.9896 1.09374,1.47788 3.20313,1.46484 l 3.0664,0 c 6.28904,0.0261 9.44659,2.66929 9.47266,7.92969 -2e-5,5.11719 -3.15106,7.6888 -9.45313,7.71484 l -9.39453,0 c -2.07031,-0.013 -3.105468,-1.03515 -3.105466,-3.0664 0.01302,-2.07031 1.041666,-3.09244 3.085936,-3.06641 l 9.41406,-0.0586 c 2.10936,-0.013 3.16405,-0.54687 3.16407,-1.60156 -2e-5,-1.0677 -1.06773,-1.59505 -3.20313,-1.58204 l -3.0664,0 c -6.26303,-0.013 -9.394538,-2.59113 -9.394536,-7.73437 l 0,-0.0977 c -2e-6,-5.15622 3.131506,-7.74086 9.394536,-7.7539 l 9.39453,0 c 2.07029,0.013 3.11195,1.05471 3.125,3.125"
         id="path3935"
         inkscape:connector-curvature="0" />
      <path
         d="m 127.43359,199.60134 10.97657,0 c 2.00519,2e-5 3.80206,0.76825 5.39062,2.30469 1.5755,1.53648 2.36326,3.33986 2.36328,5.41015 l 0,0.0586 c -2e-5,2.16147 -0.78127,4.01043 -2.34375,5.54687 -1.5495,1.52345 -3.39194,2.28517 -5.52734,2.28516 l -3.08594,0.0391 c -2.0573,1e-5 -3.09246,-1.05468 -3.10547,-3.16406 -1e-5,-2.10936 1.05468,-3.15754 3.16406,-3.14453 l 2.20704,-0.0195 c 1.65363,0.0261 2.46743,-0.47524 2.4414,-1.5039 -1e-5,-1.02863 -0.81382,-1.54295 -2.4414,-1.54297 l -6.89454,0 0,15.58594 c 0.013,2.08333 -1.03516,3.125 -3.14453,3.125 -2.08333,0 -3.125,-1.02865 -3.125,-3.08594 l 0,-18.80859 c 0.013,-2.04425 1.05469,-3.0729 3.125,-3.08594"
         id="path3937"
         inkscape:connector-curvature="0" />
      <path
         d="m 152.12109,199.56228 15.82032,0.0391 c 1.94008,0.0261 2.91664,1.03518 2.92968,3.02734 -2e-5,2.12242 -1.05471,3.20315 -3.16406,3.24219 l -12.44141,0 0,12.44141 12.42188,0 c 2.09633,0.013 3.14451,1.06771 3.14453,3.16406 -2e-5,2.04427 -1.02867,3.07943 -3.08594,3.10547 l -15.625,0 c -2.07031,0 -3.11198,-1.00912 -3.125,-3.02735 l 0,-18.82812 c 0.013,-2.07029 1.05469,-3.12498 3.125,-3.16406 m 4.64844,12.59765 c 0.013,-2.08332 1.04166,-3.138 3.08594,-3.16406 l 6.28906,0 c 2.08331,0.013 3.138,1.0547 3.16406,3.125 -0.0391,2.08334 -1.09377,3.12501 -3.16406,3.125 l -6.26953,0 c -2.07032,0.013 -3.10548,-1.01561 -3.10547,-3.08594"
         id="path3939"
         inkscape:connector-curvature="0" />
      <path
         d="m 176.80859,199.60134 10.97657,0 c 2.03123,2e-5 3.83461,0.78778 5.41015,2.36328 1.5755,1.57554 2.35675,3.37893 2.34375,5.41016 -2e-5,2.16147 -0.39716,3.98438 -1.1914,5.46875 -0.78128,1.48438 -1.95966,2.25261 -3.53516,2.30468 l 3.84766,3.90625 c 0.62497,0.61199 0.93747,1.41928 0.9375,2.42188 -0.0391,2.07031 -1.08076,3.10547 -3.125,3.10547 l -0.0781,0 c -1.04168,0 -2.06382,-0.50781 -3.06641,-1.52344 l -6.25,-7.75391 c -1.05469,-1.11978 -1.58855,-2.194 -1.60156,-3.22265 -10e-6,-2.10936 1.05468,-3.15754 3.16406,-3.14453 l 2.20704,-0.0195 c 1.65363,0.0261 2.46743,-0.47524 2.4414,-1.5039 -10e-6,-1.02863 -0.81382,-1.54295 -2.4414,-1.54297 l -6.89454,0 0,15.58594 c 0.013,2.08333 -1.03516,3.125 -3.14453,3.125 -2.08333,0 -3.125,-1.02865 -3.125,-3.08594 l 0,-18.80859 c 0.013,-2.04425 1.05469,-3.0729 3.125,-3.08594"
         id="path3941"
         inkscape:connector-curvature="0" />
      <path
         d="m 220.28516,202.70681 c -3e-5,2.08335 -1.00263,3.13153 -3.00782,3.14453 l -9.51172,-0.0195 c -2.10938,0.0261 -3.17058,0.55991 -3.18359,1.60156 0.026,0.9896 1.09374,1.47788 3.20313,1.46484 l 3.0664,0 c 6.28904,0.0261 9.44659,2.66929 9.47266,7.92969 -2e-5,5.11719 -3.15106,7.6888 -9.45313,7.71484 l -9.39453,0 c -2.07031,-0.013 -3.10547,-1.03515 -3.10547,-3.0664 0.013,-2.07031 1.04167,-3.09244 3.08594,-3.06641 l 9.41406,-0.0586 c 2.10936,-0.013 3.16405,-0.54687 3.16407,-1.60156 -2e-5,-1.0677 -1.06773,-1.59505 -3.20313,-1.58204 l -3.06641,0 c -6.26302,-0.013 -9.39453,-2.59113 -9.39453,-7.73437 l 0,-0.0977 c 0,-5.15622 3.13151,-7.74086 9.39453,-7.7539 l 9.39454,0 c 2.07029,0.013 3.11195,1.05471 3.125,3.125"
         id="path3943"
         inkscape:connector-curvature="0" />
      <path
         d="m 226.16406,199.62087 c 2.08333,0.013 3.14453,1.04169 3.1836,3.08594 l 0,18.78906 c -0.026,2.07031 -1.07423,3.125 -3.14454,3.16406 -2.08333,-0.0521 -3.125,-1.10677 -3.125,-3.16406 l 0,-18.76953 c -0.013,-2.07029 1.01563,-3.10545 3.08594,-3.10547"
         id="path3945"
         inkscape:connector-curvature="0" />
      <path
         d="m 253.58594,199.56228 c 0.52081,2e-5 1.02862,0.13674 1.52343,0.41015 0.50779,0.27346 0.89842,0.66409 1.17188,1.17188 0.28643,0.49481 0.42966,1.00913 0.42969,1.54297 -3e-5,0.54689 -1.56904,3.95184 -4.70703,10.21484 -3.12502,6.26303 -4.82424,9.64193 -5.09766,10.13672 -0.27345,0.49479 -0.65757,0.87891 -1.15234,1.15234 -0.49481,0.27344 -1.01564,0.41016 -1.5625,0.41016 -0.53387,0 -1.0547,-0.13672 -1.5625,-0.41016 -0.49481,-0.27343 -0.87892,-0.65755 -1.15235,-1.15234 -0.27345,-0.49479 -1.96615,-3.87369 -5.07812,-10.13672 -3.11198,-6.263 -4.66797,-9.66795 -4.66797,-10.21484 0,-0.53384 0.13672,-1.04816 0.41015,-1.54297 0.28646,-0.50779 0.67709,-0.89842 1.17188,-1.17188 0.49479,-0.27341 1.00911,-0.41013 1.54297,-0.41015 0.52083,2e-5 1.02864,0.13674 1.52344,0.41015 0.5078,0.27346 0.89843,0.66409 1.17187,1.17188 0.28645,0.49481 2.49999,5.00653 6.64063,13.53515 4.17967,-8.52862 6.40623,-13.04034 6.67968,-13.53515 0.28644,-0.50779 0.67707,-0.89842 1.17188,-1.17188 0.49477,-0.27341 1.00909,-0.41013 1.54297,-0.41015"
         id="path3947"
         inkscape:connector-curvature="0" />
      <path
         d="m 262.27734,199.56228 15.82032,0.0391 c 1.94008,0.0261 2.91664,1.03518 2.92968,3.02734 -2e-5,2.12242 -1.05471,3.20315 -3.16406,3.24219 l -12.44141,0 0,12.44141 12.42188,0 c 2.09633,0.013 3.14451,1.06771 3.14453,3.16406 -2e-5,2.04427 -1.02867,3.07943 -3.08594,3.10547 l -15.625,0 c -2.07031,0 -3.11198,-1.00912 -3.125,-3.02735 l 0,-18.82812 c 0.013,-2.07029 1.05469,-3.12498 3.125,-3.16406 m 4.64844,12.59765 c 0.013,-2.08332 1.04166,-3.138 3.08594,-3.16406 l 6.28906,0 c 2.08331,0.013 3.138,1.0547 3.16406,3.125 -0.0391,2.08334 -1.09377,3.12501 -3.16406,3.125 l -6.26953,0 c -2.07032,0.013 -3.10548,-1.01561 -3.10547,-3.08594"
         id="path3949"
         inkscape:connector-curvature="0" />
    </g>
  </g>
</svg>
